<?xml version="1.0" encoding="UTF-8" standalone="no"?>
<!-- Generator: Adobe Illustrator 18.1.1, SVG Export Plug-In  -->

<svg
   xmlns:dc="http://purl.org/dc/elements/1.1/"
   xmlns:cc="http://creativecommons.org/ns#"
   xmlns:rdf="http://www.w3.org/1999/02/22-rdf-syntax-ns#"
   xmlns:svg="http://www.w3.org/2000/svg"
   xmlns="http://www.w3.org/2000/svg"
   xmlns:sodipodi="http://sodipodi.sourceforge.net/DTD/sodipodi-0.dtd"
   xmlns:inkscape="http://www.inkscape.org/namespaces/inkscape"
   version="1.1"
   x="0px"
   y="0px"
   width="512"
   height="512"
   viewBox="0 0 512.00002 512"
   enable-background="new 0 0 420.606 248.004"
   xml:space="preserve"
   id="svg2"
   inkscape:version="0.48.4 r9939"
   sodipodi:docname="desktop.svg"><title
     id="title3003">lycheeJS Logo</title><metadata
     id="metadata22"><rdf:RDF><cc:Work
         rdf:about=""><dc:format>image/svg+xml</dc:format><dc:type
           rdf:resource="http://purl.org/dc/dcmitype/StillImage" /><dc:title>lycheeJS Logo</dc:title><cc:license
           rdf:resource="http://creativecommons.org/licenses/publicdomain/" /><dc:date>2015</dc:date><dc:creator><cc:Agent><dc:title>Daniel Seiler</dc:title></cc:Agent></dc:creator><dc:source>lycheejs.org</dc:source></cc:Work><cc:License
         rdf:about="http://creativecommons.org/licenses/publicdomain/"><cc:permits
           rdf:resource="http://creativecommons.org/ns#Reproduction" /><cc:permits
           rdf:resource="http://creativecommons.org/ns#Distribution" /><cc:permits
           rdf:resource="http://creativecommons.org/ns#DerivativeWorks" /></cc:License></rdf:RDF></metadata><sodipodi:namedview
     pagecolor="#ffffff"
     bordercolor="#666666"
     borderopacity="1"
     objecttolerance="10"
     gridtolerance="10"
     guidetolerance="10"
     inkscape:pageopacity="0"
     inkscape:pageshadow="2"
     inkscape:window-width="1920"
     inkscape:window-height="1014"
     id="namedview20"
     showgrid="false"
     showguides="true"
     inkscape:guide-bbox="true"
     inkscape:zoom="1.4407783"
     inkscape:cx="155.1338"
     inkscape:cy="180.07596"
     inkscape:window-x="0"
     inkscape:window-y="27"
     inkscape:window-maximized="1"
     inkscape:current-layer="g6"><sodipodi:guide
       orientation="1,0"
       position="256.80564,302.61421"
       id="guide2999" /><sodipodi:guide
       orientation="0,1"
       position="394.23135,255.4175"
       id="guide3001" /></sodipodi:namedview><defs
     id="defs4" /><g
     id="g6"
     transform="translate(45.808575,137.67539)"><path
       d="m 465.47242,107.23647 c -18.62207,-3.31874 -55.24831,-8.920776 -90.27226,-8.920776 -0.53775,0 -1.04757,0.01578 -1.58167,0.01942 0.0582,2.138856 0.0181,4.292266 -0.24157,6.467536 -2.09514,17.51501 -6.77584,39.65244 -16.75998,61.88699 40.74859,-13.63909 88.29486,-45.07604 108.85548,-59.45318 z"
       id="path8"
       inkscape:connector-curvature="0"
       style="fill:#f2f2f2" /><path
       d="m 351.71654,176.78667 c -5.88366,11.17614 -13.21183,22.20542 -22.38507,32.50272 -9.91736,11.13366 -21.29017,20.43073 -33.87926,27.90577 57.53162,24.8274 156.39568,31.6518 156.39568,31.6518 0,0 -49.70941,-59.41919 -100.13135,-92.06029 z"
       id="path10"
       inkscape:connector-curvature="0"
       style="fill:#f2f2f2" /><path
       d="m 90.032954,209.73487 c -8.675568,-9.55562 -16.183377,-20.41736 -22.456683,-32.24173 -50.046864,32.78556 -99.043722,91.35382 -99.043722,91.35382 0,0 98.155158,-6.77464 155.774181,-31.38474 -12.71657,-7.42164 -24.22289,-16.6568 -34.273776,-27.72735 z"
       id="path12"
       inkscape:connector-curvature="0"
       style="fill:#f2f2f2" /><path
       d="m 46.542237,104.21877 c -0.165086,-1.9774 -0.160231,-3.93781 -0.06918,-5.887295 -0.43578,-0.0012 -0.852139,-0.01457 -1.291562,-0.01457 -35.049432,0 -71.658696,5.600825 -90.271044,8.920775 20.274141,14.17321 66.795908,44.93645 107.1524,58.86931 -8.340534,-18.92675 -13.68037,-39.89886 -15.520606,-61.88822 z"
       id="path14"
       inkscape:connector-curvature="0"
       style="fill:#f2f2f2" /><path
       d="m 356.97261,102.83981 c 2.62197,-21.918947 -20.66015,-37.346088 -51.33599,-47.290154 -1.02088,-0.320462 -8.50927,-2.333067 -10.79743,6.4651 28.6074,9.090712 46.7961,22.681259 46.7961,37.875334 0,27.36682 -58.9397,49.55283 -131.64597,49.55283 -72.70625,0 -130.320422,-22.18601 -130.320422,-49.55283 0,-15.175868 17.66795,-28.751848 48.014822,-37.841346 0,-0.0049 0,-0.0086 0,-0.01336 0,-8.760538 -10.92852,-7.394929 -12.01008,-7.142442 -31.578948,10.449041 -53.785587,26.651847 -52.003619,47.946858 5.778044,69.06223 49.586799,139.78016 146.651899,139.78016 97.52274,0 138.49588,-71.59435 146.65069,-139.78016 z"
       id="path16"
       inkscape:connector-curvature="0"
       style="fill:#f2f2f2" /><path
       d="m 209.98932,113.64695 c 24.49236,0 45.99738,-4.31048 62.79134,-11.3024 3.72174,-7.570943 5.80354,-17.698303 5.80354,-31.304632 0,-52.455189 -30.71105,-103.237658 -68.59367,-103.237658 -37.88261,0 -68.59366,50.783683 -68.59366,103.237658 0,13.671877 2.10244,23.82837 5.85817,31.411462 16.72719,6.92879 38.17516,11.19557 62.73428,11.19557 z"
       id="path18"
       inkscape:connector-curvature="0"
       style="fill:#d0494b" /></g></svg>